<svg width="19" height="19" viewBox="0 0 19 19" fill="none" xmlns="http://www.w3.org/2000/svg">
<path fill-rule="evenodd" clip-rule="evenodd" d="M6.33334 3.1577C6.33334 2.72195 6.6603 2.3683 7.06405 2.3683H11.936C12.3397 2.3683 12.6667 2.72195 12.6667 3.1577C12.6667 3.59344 12.3397 3.9471 11.936 3.9471H7.06405C6.6603 3.9471 6.33334 3.59344 6.33334 3.1577ZM7.74092 16.5775H11.2591C13.7299 16.5775 14.9657 16.5775 15.8531 16.0075C16.235 15.7627 16.5647 15.4454 16.8237 15.0737C17.4167 14.2211 17.4167 13.0331 17.4167 10.657C17.4167 8.2809 17.4167 7.09364 16.8229 6.2403C16.5642 5.86859 16.2347 5.55127 15.8531 5.30644C14.9657 4.7365 13.7299 4.7365 11.2591 4.7365H7.74092C5.27013 4.7365 4.03434 4.7365 3.14688 5.30644C2.76531 5.55129 2.43579 5.8686 2.17709 6.2403C1.58334 7.09285 1.58334 8.2809 1.58334 10.6554V10.657C1.58334 13.0331 1.58334 14.2203 2.1763 15.0737C2.4328 15.4431 2.76213 15.7605 3.14688 16.0075C4.03434 16.5775 5.27013 16.5775 7.74092 16.5775ZM6.20113 10.657C6.20113 8.90453 7.67838 7.48518 9.50001 7.48518C11.3216 7.48518 12.7989 8.90531 12.7989 10.657C12.7989 12.4087 11.3208 13.8288 9.50001 13.8288C7.67838 13.8288 6.20113 12.4079 6.20113 10.657ZM7.52084 10.657C7.52084 9.60551 8.40751 8.75454 9.50001 8.75454C10.5925 8.75454 11.4792 9.6063 11.4792 10.657C11.4792 11.7077 10.5925 12.5594 9.50001 12.5594C8.40751 12.5594 7.52084 11.7077 7.52084 10.657ZM14.3379 7.48518C13.9737 7.48518 13.6784 7.76937 13.6784 8.11986C13.6784 8.46957 13.9737 8.75375 14.3379 8.75375H14.778C15.1422 8.75375 15.4375 8.46957 15.4375 8.11986C15.4375 7.76937 15.1422 7.48518 14.778 7.48518H14.3379Z" fill="#242760" fill-opacity="0.81"/>
</svg>
