<svg width="21" height="21" viewBox="0 0 21 21" fill="none" xmlns="http://www.w3.org/2000/svg">
<path d="M7.43755 16.6251H7.00005C3.50004 16.6251 1.75004 15.7501 1.75004 11.3751V7.00005C1.75004 3.50004 3.50004 1.75004 7.00005 1.75004H14.0001C17.5001 1.75004 19.2501 3.50004 19.2501 7.00005V11.3751C19.2501 14.8751 17.5001 16.6251 14.0001 16.6251H13.5626C13.2913 16.6251 13.0288 16.7563 12.8626 16.9751L11.5501 18.7251C10.9726 19.4951 10.0276 19.4951 9.45005 18.7251L8.13755 16.9751C7.99755 16.7826 7.6738 16.6251 7.43755 16.6251Z" stroke="#6699FF" stroke-width="1.5" stroke-miterlimit="10" stroke-linecap="round" stroke-linejoin="round"/>
<path d="M13.9969 9.62491H14.0047" stroke="#6699FF" stroke-width="2" stroke-linecap="round" stroke-linejoin="round"/>
<path d="M10.496 9.62491H10.5039" stroke="#6699FF" stroke-width="2" stroke-linecap="round" stroke-linejoin="round"/>
<path d="M6.99516 9.62491H7.00302" stroke="#6699FF" stroke-width="2" stroke-linecap="round" stroke-linejoin="round"/>
</svg>
