<svg width="30" height="30" viewBox="0 0 30 30" fill="none" xmlns="http://www.w3.org/2000/svg">
<path fill-rule="evenodd" clip-rule="evenodd" d="M3.37868 4.55055C2.5 5.42923 2.5 6.84345 2.5 9.67187V19.6719C2.5 22.5003 2.5 23.9145 3.37868 24.7932C4.25736 25.6719 5.67157 25.6719 8.5 25.6719H18.5C21.3284 25.6719 22.7426 25.6719 23.6213 24.7932C24.5 23.9145 24.5 22.5003 24.5 19.6719V9.67188C24.5 6.84345 24.5 5.42923 23.6213 4.55055C22.7426 3.67188 21.3284 3.67188 18.5 3.67188H8.5C5.67157 3.67188 4.25736 3.67188 3.37868 4.55055ZM17.9 10.0052C18.4523 10.0052 18.9 10.453 18.9 11.0052V20.783C18.9 21.3353 18.4523 21.783 17.9 21.783C17.3477 21.783 16.9 21.3353 16.9 20.783V11.0052C16.9 10.453 17.3477 10.0052 17.9 10.0052ZM10.1 13.4497C10.1 12.8974 9.65232 12.4497 9.10003 12.4497C8.54775 12.4497 8.10003 12.8974 8.10003 13.4497V20.783C8.10003 21.3353 8.54775 21.783 9.10003 21.783C9.65232 21.783 10.1 21.3353 10.1 20.783L10.1 13.4497ZM14.5 15.8942C14.5 15.3419 14.0523 14.8942 13.5 14.8942C12.9478 14.8942 12.5 15.3419 12.5 15.8942V20.7831C12.5 21.3353 12.9478 21.7831 13.5 21.7831C14.0523 21.7831 14.5 21.3353 14.5 20.7831V15.8942Z" fill="#6699FF"/>
</svg>
