<svg width="22" height="26" viewBox="0 0 22 26" fill="none" xmlns="http://www.w3.org/2000/svg">
<path d="M21.0656 11.7664C20.4589 10.4966 19.577 9.35695 18.475 8.41866L17.5656 7.64276C17.5347 7.61714 17.4976 7.59896 17.4574 7.58981C17.4172 7.58066 17.3752 7.58083 17.3351 7.5903C17.295 7.59976 17.258 7.61824 17.2273 7.64411C17.1967 7.66998 17.1734 7.70245 17.1594 7.73866L16.7531 8.8226C16.5 9.50261 16.0344 10.1971 15.375 10.8801C15.3312 10.9236 15.2812 10.9353 15.2469 10.9382C15.2125 10.9411 15.1594 10.9353 15.1125 10.8946C15.0687 10.8597 15.0469 10.8074 15.05 10.7551C15.1656 9.00568 14.6031 7.0325 13.3719 4.88496C12.3531 3.10067 10.9375 1.7087 9.16874 0.738091L7.87812 0.0319316C7.70937 -0.0610606 7.49374 0.0609916 7.50312 0.24407L7.57187 1.63895C7.61874 2.59212 7.49999 3.43486 7.21874 4.13521C6.87499 4.99248 6.38124 5.78873 5.74999 6.50361C5.31069 7.00043 4.81278 7.4498 4.26562 7.84328C2.94783 8.7853 1.87629 9.99236 1.13125 11.3741C0.388043 12.7678 0.000906752 14.3023 0 15.858C0 17.2297 0.290625 18.5577 0.865624 19.8102C1.42083 21.0161 2.22206 22.1105 3.225 23.033C4.2375 23.9629 5.41249 24.6952 6.72187 25.2038C8.07812 25.7326 9.51562 26 11 26C12.4844 26 13.9219 25.7326 15.2781 25.2067C16.5843 24.7011 17.772 23.9638 18.775 23.0359C19.7875 22.106 20.5812 21.0191 21.1344 19.8131C21.7085 18.564 22.003 17.2193 22 15.8609C22 14.4428 21.6875 13.0654 21.0656 11.7664Z" fill="#142A68"/>
</svg>
