<svg width="62" height="56" viewBox="0 0 62 56" fill="none" xmlns="http://www.w3.org/2000/svg">
<path d="M11.3571 2.5298C11.8468 2.06289 12.8145 2.03935 13.423 2.90686C13.9397 3.64357 13.882 4.92716 12.9447 5.89925C10.903 8.01674 9.22289 10.4844 7.98616 13.2005C6.14456 17.245 5.34797 21.7042 5.67052 26.1507C5.99307 30.5971 7.42391 34.8826 9.82502 38.5976C12.2261 42.3126 15.518 45.3341 19.3863 47.3724C23.2548 49.4108 27.571 50.3981 31.9223 50.2376C36.2737 50.077 40.5136 48.774 44.2352 46.4519C47.9568 44.1299 51.0339 40.8676 53.1719 36.9785C54.6092 34.3641 55.5895 31.5257 56.0807 28.5912C56.3037 27.2583 57.2928 26.4686 58.1766 26.4706C59.2053 26.473 59.7444 27.2717 59.6615 27.9415C59.193 31.7291 58.0125 35.3985 56.1741 38.7427C53.7491 43.1537 50.2603 46.8519 46.042 49.4838C41.8237 52.1157 37.0158 53.5941 32.0778 53.7763C27.1397 53.9585 22.2363 52.8382 17.8379 50.5205C13.4394 48.2028 9.69414 44.7658 6.96182 40.5384C4.22949 36.3109 2.60258 31.4361 2.23591 26.3816C1.86926 21.3272 2.77509 16.2634 4.86448 11.6747C6.4396 8.21544 8.64774 5.11312 11.3571 2.5298Z" stroke="#3585FE" stroke-width="4.31003"/>
</svg>
