<svg width="35" height="29" viewBox="0 0 35 29" fill="none" xmlns="http://www.w3.org/2000/svg">
<path d="M27.4482 6.98133L28.2346 6.36367V6.36367L27.4482 6.98133ZM27.4482 19.6018L28.2346 20.2195L28.2346 20.2195L27.4482 19.6018ZM25.8808 20.9354L26.375 21.8047L26.375 21.8047L25.8808 20.9354ZM19.884 21.7483L19.8802 20.7483C19.3294 20.7503 18.884 21.1974 18.884 21.7483H19.884ZM19.884 21.7499L20.7461 22.2566C20.8364 22.103 20.884 21.9281 20.884 21.7499H19.884ZM17.9055 25.1163L18.7677 25.623V25.623L17.9055 25.1163ZM16.1813 25.1163L15.3191 25.623V25.623L16.1813 25.1163ZM14.2028 21.7499H13.2028C13.2028 21.9281 13.2504 22.103 13.3407 22.2566L14.2028 21.7499ZM14.2028 21.7483H15.2028C15.2028 21.1974 14.7574 20.7503 14.2065 20.7483L14.2028 21.7483ZM8.20601 20.9354L7.71181 21.8047L7.71182 21.8047L8.20601 20.9354ZM6.63859 19.6018L5.85215 20.2195H5.85215L6.63859 19.6018ZM6.63859 6.98133L5.85215 6.36367H5.85215L6.63859 6.98133ZM8.20601 5.64782L8.70021 6.51717L8.20601 5.64782ZM25.8808 5.64782L25.3866 6.51717V6.51717L25.8808 5.64782ZM29.4056 13.2916C29.4056 11.6189 29.4073 10.2761 29.2789 9.20209C29.1473 8.10175 28.8689 7.17126 28.2346 6.36367L26.6618 7.59899C26.9849 8.01048 27.1852 8.53806 27.293 9.43954C27.404 10.3674 27.4056 11.5701 27.4056 13.2916H29.4056ZM28.2346 20.2195C28.8689 19.4119 29.1473 18.4814 29.2789 17.3811C29.4073 16.3071 29.4056 14.9643 29.4056 13.2916H27.4056C27.4056 15.013 27.404 16.2158 27.293 17.1436C27.1852 18.0451 26.9849 18.5727 26.6618 18.9842L28.2346 20.2195ZM26.375 21.8047C27.1009 21.392 27.735 20.8557 28.2346 20.2195L26.6618 18.9842C26.3324 19.4035 25.9013 19.7734 25.3866 20.066L26.375 21.8047ZM19.8877 22.7483C21.4158 22.7426 22.6555 22.7179 23.679 22.5976C24.713 22.4759 25.5907 22.2505 26.375 21.8047L25.3866 20.066C24.9191 20.3318 24.3307 20.5071 23.4454 20.6112C22.5495 20.7166 21.4167 20.7426 19.8802 20.7483L19.8877 22.7483ZM20.884 21.7499V21.7483H18.884V21.7499H20.884ZM18.7677 25.623L20.7461 22.2566L19.0218 21.2432L17.0434 24.6096L18.7677 25.623ZM15.3191 25.623C16.0923 26.9385 17.9945 26.9385 18.7677 25.623L17.0434 24.6096L17.0434 24.6096L15.3191 25.623ZM13.3407 22.2566L15.3191 25.623L17.0434 24.6096L15.065 21.2432L13.3407 22.2566ZM13.2028 21.7483V21.7499H15.2028V21.7483H13.2028ZM7.71182 21.8047C8.49605 22.2505 9.37382 22.4759 10.4078 22.5976C11.4313 22.7179 12.671 22.7426 14.1991 22.7483L14.2065 20.7483C12.6701 20.7426 11.5373 20.7166 10.6414 20.6112C9.75611 20.5071 9.16774 20.3318 8.70021 20.066L7.71182 21.8047ZM5.85215 20.2195C6.35178 20.8557 6.9859 21.392 7.71181 21.8047L8.70021 20.066C8.18548 19.7734 7.75438 19.4035 7.42504 18.9842L5.85215 20.2195ZM4.68115 13.2916C4.68115 14.9643 4.67949 16.3071 4.80791 17.3811C4.93947 18.4814 5.21788 19.4119 5.85215 20.2195L7.42504 18.9842C7.10186 18.5727 6.90155 18.0451 6.79376 17.1436C6.68282 16.2158 6.68115 15.013 6.68115 13.2916H4.68115ZM5.85215 6.36367C5.21788 7.17126 4.93947 8.10175 4.80791 9.20209C4.67949 10.2761 4.68115 11.6189 4.68115 13.2916H6.68115C6.68115 11.5701 6.68282 10.3674 6.79376 9.43954C6.90155 8.53806 7.10186 8.01048 7.42504 7.59899L5.85215 6.36367ZM7.71182 4.77847C6.9859 5.19112 6.35178 5.72751 5.85215 6.36367L7.42504 7.59899C7.75438 7.17965 8.18548 6.80977 8.70021 6.51717L7.71182 4.77847ZM15.6231 3.83325C13.6461 3.83325 12.0993 3.83237 10.8696 3.9388C9.63006 4.04608 8.6086 4.26867 7.71182 4.77847L8.70021 6.51717C9.23634 6.21239 9.9287 6.02771 11.0421 5.93135C12.1654 5.83413 13.6106 5.83325 15.6231 5.83325V3.83325ZM18.4637 3.83325H15.6231V5.83325H18.4637V3.83325ZM26.375 4.77847C25.4782 4.26867 24.4567 4.04608 23.2172 3.9388C21.9875 3.83237 20.4407 3.83325 18.4637 3.83325V5.83325C20.4762 5.83325 21.9214 5.83413 23.0447 5.93135C24.1581 6.02771 24.8505 6.21239 25.3866 6.51717L26.375 4.77847ZM28.2346 6.36367C27.735 5.72751 27.1009 5.19112 26.375 4.77847L25.3866 6.51717C25.9013 6.80977 26.3324 7.17965 26.6618 7.59899L28.2346 6.36367Z" fill="white"/>
<ellipse cx="22.7245" cy="13.2916" rx="1.42028" ry="1.20833" fill="white" stroke="white" stroke-linecap="round"/>
<ellipse cx="17.0433" cy="13.2916" rx="1.42028" ry="1.20833" fill="white" stroke="white" stroke-linecap="round"/>
<ellipse cx="11.3622" cy="13.2916" rx="1.42028" ry="1.20833" fill="white" stroke="white" stroke-linecap="round"/>
</svg>
