<svg width="49" height="49" viewBox="0 0 49 49" fill="none" xmlns="http://www.w3.org/2000/svg">
<path fill-rule="evenodd" clip-rule="evenodd" d="M24.5003 20.9272C24.9064 20.9272 25.2959 21.0886 25.5831 21.3757C25.8702 21.6629 26.0316 22.0524 26.0316 22.4585V25.0106H28.5837C28.9898 25.0106 29.3793 25.1719 29.6664 25.4591C29.9536 25.7462 30.1149 26.1357 30.1149 26.5418C30.1149 26.9479 29.9536 27.3374 29.6664 27.6246C29.3793 27.9118 28.9898 28.0731 28.5837 28.0731H26.0316V30.6252C26.0316 31.0313 25.8702 31.4208 25.5831 31.7079C25.2959 31.9951 24.9064 32.1564 24.5003 32.1564C24.0942 32.1564 23.7047 31.9951 23.4176 31.7079C23.1304 31.4208 22.9691 31.0313 22.9691 30.6252V28.0731H20.417C20.0109 28.0731 19.6214 27.9118 19.3342 27.6246C19.0471 27.3374 18.8857 26.9479 18.8857 26.5418C18.8857 26.1357 19.0471 25.7462 19.3342 25.4591C19.6214 25.1719 20.0109 25.0106 20.417 25.0106H22.9691V22.4585C22.9691 22.0524 23.1304 21.6629 23.4176 21.3757C23.7047 21.0886 24.0942 20.9272 24.5003 20.9272Z" fill="#3F3D56"/>
<path fill-rule="evenodd" clip-rule="evenodd" d="M19.9636 42.8751H29.0367C35.4088 42.8751 38.5958 42.8751 40.8845 41.3745C41.8721 40.7272 42.7226 39.892 43.3876 38.9163C44.9168 36.6705 44.9168 33.5406 44.9168 27.2849C44.9168 21.0272 44.9168 17.8994 43.3876 15.6536C42.7226 14.6779 41.8721 13.8426 40.8845 13.1954C39.4145 12.2297 37.573 11.8846 34.7534 11.7621C33.408 11.7621 32.2503 10.7617 31.987 9.46526C31.7857 8.51562 31.2627 7.66459 30.5064 7.05599C29.7502 6.4474 28.807 6.11858 27.8362 6.1251H21.1641C19.1469 6.1251 17.4095 7.52364 17.0134 9.46526C16.75 10.7617 15.5924 11.7621 14.2469 11.7621C11.4294 11.8846 9.58783 12.2317 8.11579 13.1954C7.12889 13.8427 6.27905 14.678 5.61475 15.6536C4.0835 17.8994 4.0835 21.0272 4.0835 27.2849C4.0835 33.5406 4.0835 36.6684 5.6127 38.9163C6.2742 39.8881 7.12354 40.7232 8.11579 41.3745C10.4045 42.8751 13.5915 42.8751 19.9636 42.8751ZM32.6668 26.5418C32.6668 28.7077 31.8064 30.7849 30.2749 32.3165C28.7433 33.848 26.6661 34.7084 24.5002 34.7084C22.3342 34.7084 20.257 33.848 18.7255 32.3165C17.1939 30.7849 16.3335 28.7077 16.3335 26.5418C16.3335 24.3758 17.1939 22.2986 18.7255 20.7671C20.257 19.2355 22.3342 18.3751 24.5002 18.3751C26.6661 18.3751 28.7433 19.2355 30.2749 20.7671C31.8064 22.2986 32.6668 24.3758 32.6668 26.5418ZM36.7502 18.8855C36.3441 18.8855 35.9546 19.0468 35.6674 19.334C35.3802 19.6212 35.2189 20.0106 35.2189 20.4168C35.2189 20.8229 35.3802 21.2124 35.6674 21.4995C35.9546 21.7867 36.3441 21.948 36.7502 21.948H38.7918C39.1979 21.948 39.5874 21.7867 39.8746 21.4995C40.1618 21.2124 40.3231 20.8229 40.3231 20.4168C40.3231 20.0106 40.1618 19.6212 39.8746 19.334C39.5874 19.0468 39.1979 18.8855 38.7918 18.8855H36.7502Z" fill="#3F3D56"/>
</svg>
