<svg width="27" height="29" viewBox="0 0 27 29" fill="none" xmlns="http://www.w3.org/2000/svg">
<path d="M7.19395 10.3446C7.51283 7.21448 10.1487 4.8335 13.295 4.8335V4.8335C16.4413 4.8335 19.0771 7.21448 19.396 10.3446L19.7388 13.7094C19.7774 14.0876 19.7966 14.2767 19.8245 14.463C19.9461 15.2749 20.1919 16.0632 20.5533 16.8003C20.6362 16.9695 20.7278 17.136 20.9111 17.4691L21.6356 18.7861C22.3625 20.1074 22.7259 20.768 22.4356 21.2591C22.1453 21.7502 21.3913 21.7502 19.8833 21.7502H6.70669C5.19871 21.7502 4.44472 21.7502 4.15439 21.2591C3.86406 20.768 4.22749 20.1074 4.95435 18.7861L5.6789 17.4691C5.86214 17.136 5.95377 16.9695 6.03671 16.8003C6.39811 16.0632 6.6439 15.2749 6.76546 14.463C6.79335 14.2767 6.81262 14.0876 6.85115 13.7094L7.19395 10.3446Z" stroke="white"/>
<path d="M10.0844 22.2404C10.2738 23.1397 10.6911 23.9343 11.2715 24.5011C11.852 25.0678 12.5632 25.375 13.2949 25.375C14.0266 25.375 14.7378 25.0678 15.3183 24.5011C15.8987 23.9343 16.316 23.1397 16.5054 22.2404" stroke="white" stroke-linecap="round"/>
<ellipse cx="17.8795" cy="8.5" rx="4.12604" ry="4.5" fill="#6699FF"/>
</svg>
