<svg width="20" height="16" viewBox="0 0 20 16" fill="none" xmlns="http://www.w3.org/2000/svg">
<path d="M9.93896 16C10.3208 16 10.6465 15.854 10.9385 15.5508L19.5073 6.79102C19.7544 6.55518 19.8779 6.24072 19.8779 5.88135C19.8779 5.15137 19.3164 4.57861 18.5752 4.57861C18.2158 4.57861 17.8901 4.72461 17.6431 4.97168L9.93896 12.8667L2.23486 4.97168C1.97656 4.72461 1.65088 4.57861 1.2915 4.57861C0.561523 4.57861 0 5.15137 0 5.88135C0 6.24072 0.123535 6.55518 0.370605 6.79102L8.93945 15.5508C9.23145 15.854 9.55713 15.9888 9.93896 16Z" fill="#9095A0"/>
</svg>
