<svg width="25" height="19" viewBox="0 0 25 19" fill="none" xmlns="http://www.w3.org/2000/svg">
<path d="M12.3637 16.6661C12.7584 16.6701 13.0967 16.5226 13.4017 16.2121L22.3519 7.24551C22.6098 7.00427 22.7408 6.68047 22.7446 6.30894C22.7522 5.55426 22.1776 4.95627 21.4114 4.94853C21.0398 4.94477 20.7016 5.09231 20.4436 5.34516L12.3964 13.4268L4.5141 5.18425C4.24964 4.92613 3.91447 4.77179 3.54293 4.76804C2.78826 4.76041 2.20176 5.34668 2.19413 6.10136C2.19038 6.47289 2.31481 6.79927 2.56778 7.04567L11.335 16.1913C11.6337 16.5078 11.969 16.6505 12.3637 16.6661Z" fill="#CCCCCC"/>
</svg>
