<svg width="40" height="40" viewBox="0 0 40 40" fill="none" xmlns="http://www.w3.org/2000/svg">
<path fill-rule="evenodd" clip-rule="evenodd" d="M17.2727 21.313L9.02542 18.564C6.67221 17.7796 5.49561 17.3874 5.49561 16.6666C5.49561 15.9458 6.67221 15.5536 9.02543 14.7692L29.5386 7.93151C31.1944 7.37958 32.0223 7.10362 32.4593 7.54063C32.8963 7.97765 32.6203 8.80554 32.0684 10.4613L25.2307 30.9745C24.4463 33.3277 24.0541 34.5043 23.3333 34.5043C22.6126 34.5043 22.2204 33.3277 21.436 30.9745L18.6869 22.7273L25.7071 15.707C26.0976 15.3165 26.0976 14.6834 25.7071 14.2928C25.3166 13.9023 24.6834 13.9023 24.2929 14.2928L17.2727 21.313Z" fill="#012B68"/>
</svg>
