<svg width="34" height="34" viewBox="0 0 34 34" fill="none" xmlns="http://www.w3.org/2000/svg">
<path d="M24.1231 0H9.87702C3.68901 0 0 3.68901 0 9.87702V24.1061C0 30.3111 3.68901 34.0001 9.87702 34.0001H24.1061C30.2941 34.0001 33.9831 30.3111 33.9831 24.1231V9.87702C34.0001 3.68901 30.3111 0 24.1231 0ZM7.59902 9.72402C8.09202 9.23102 8.90802 9.23102 9.40102 9.72402C10.608 10.931 12.58 10.931 13.787 9.72402C14.28 9.23102 15.096 9.23102 15.589 9.72402C16.082 10.217 16.082 11.033 15.589 11.526C14.484 12.631 13.039 13.175 11.594 13.175C10.149 13.175 8.70402 12.631 7.59902 11.526C7.10602 11.016 7.10602 10.217 7.59902 9.72402ZM17 28.5261C12.427 28.5261 8.70402 24.8031 8.70402 20.2301C8.70402 19.04 9.67302 18.054 10.863 18.054H23.1031C24.2931 18.054 25.2621 19.023 25.2621 20.2301C25.2961 24.8031 21.5731 28.5261 17 28.5261ZM26.4011 11.526C25.2961 12.631 23.8511 13.175 22.4061 13.175C20.9611 13.175 19.516 12.631 18.411 11.526C17.918 11.033 17.918 10.217 18.411 9.72402C18.904 9.23102 19.72 9.23102 20.2131 9.72402C21.4201 10.931 23.3921 10.931 24.5991 9.72402C25.0921 9.23102 25.9081 9.23102 26.4011 9.72402C26.8941 10.217 26.8941 11.016 26.4011 11.526Z" fill="#142A68"/>
</svg>
