<svg width="40" height="40" viewBox="0 0 40 40" fill="none" xmlns="http://www.w3.org/2000/svg">
<path fill-rule="evenodd" clip-rule="evenodd" d="M17.2727 21.3133L9.02542 18.5642C6.67221 17.7798 5.49561 17.3876 5.49561 16.6668C5.49561 15.9461 6.67221 15.5539 9.02543 14.7695L29.5386 7.93175C31.1944 7.37982 32.0223 7.10386 32.4593 7.54088C32.8963 7.97789 32.6203 8.80578 32.0684 10.4616L32.0684 10.4616L25.2307 30.9748L25.2307 30.9748C24.4463 33.328 24.0541 34.5046 23.3333 34.5046C22.6126 34.5046 22.2204 33.328 21.436 30.9748L21.436 30.9747L18.6869 22.7275L25.7071 15.7073C26.0976 15.3168 26.0976 14.6836 25.7071 14.2931C25.3166 13.9025 24.6834 13.9025 24.2929 14.2931L17.2727 21.3133Z" fill="white"/>
</svg>
