<svg width="12" height="12" viewBox="0 0 12 12" fill="none" xmlns="http://www.w3.org/2000/svg">
<path d="M0.271763 10.3444C-0.0881394 10.7043 -0.0954843 11.3434 0.279108 11.718C0.661045 12.0925 1.30006 12.0852 1.65261 11.7326L6.00082 7.38443L10.3417 11.7253C10.7089 12.0925 11.3406 12.0925 11.7152 11.718C12.0898 11.336 12.0898 10.7117 11.7225 10.3444L7.38167 6.00358L11.7225 1.65537C12.0898 1.28813 12.0971 0.656461 11.7152 0.281869C11.3406 -0.0927232 10.7089 -0.0927232 10.3417 0.274524L6.00082 4.61539L1.65261 0.274524C1.30006 -0.0853782 0.6537 -0.100068 0.279108 0.281869C-0.0954843 0.656461 -0.0881394 1.30282 0.271763 1.65537L4.61263 6.00358L0.271763 10.3444Z" fill="#142A68"/>
</svg>
