<svg width="24" height="24" viewBox="0 0 24 24" fill="none" xmlns="http://www.w3.org/2000/svg">
<path d="M12.3209 4.10695L13.0999 3.43811C12.9048 3.21093 12.6203 3.08021 12.3209 3.08021C12.0214 3.08021 11.7369 3.21093 11.5419 3.43811L12.3209 4.10695ZM12.3209 4.10695C11.5419 3.43811 11.5417 3.4383 11.5415 3.43852C11.5414 3.43862 11.5412 3.43885 11.541 3.43906C11.5407 3.43946 11.5403 3.43996 11.5398 3.44055C11.5388 3.44173 11.5374 3.44327 11.5358 3.44518C11.5326 3.44898 11.5281 3.45424 11.5224 3.46092C11.5111 3.47427 11.4951 3.49332 11.4747 3.51784C11.4337 3.5669 11.3751 3.63792 11.3014 3.72929C11.1539 3.91197 10.9455 4.17635 10.6965 4.50937C10.1991 5.1744 9.53591 6.11841 8.87142 7.23631C7.56424 9.43546 6.16043 12.4576 6.16043 15.4011H8.2139C8.2139 13.0296 9.37694 10.4047 10.6366 8.28555C11.2555 7.24428 11.8757 6.3613 12.341 5.73914C12.5732 5.42856 12.7659 5.18429 12.8992 5.01921C12.9658 4.93671 13.0175 4.87408 13.0518 4.83295C13.0689 4.81239 13.0817 4.79721 13.0898 4.78762C13.0939 4.78282 13.0968 4.77942 13.0985 4.77744C13.0993 4.77645 13.0998 4.77581 13.1001 4.77554C13.1002 4.7754 13.1002 4.77535 13.1002 4.77539C13.1002 4.77542 13.1001 4.77552 13.1001 4.77553C13.1 4.77565 13.0999 4.77579 12.3209 4.10695ZM18.4813 15.4011C18.4813 12.4576 17.0775 9.43546 15.7703 7.23631C15.1058 6.11841 14.4426 5.1744 13.9453 4.50937C13.6962 4.17635 13.4878 3.91197 13.3403 3.72929C13.2666 3.63792 13.208 3.5669 13.1671 3.51784C13.1466 3.49332 13.1306 3.47427 13.1193 3.46092C13.1136 3.45424 13.1091 3.44898 13.1059 3.44518C13.1043 3.44327 13.103 3.44173 13.1019 3.44055C13.1014 3.43996 13.101 3.43946 13.1007 3.43906C13.1005 3.43885 13.1003 3.43862 13.1002 3.43852C13.1 3.4383 13.0999 3.43811 12.3209 4.10695C11.5419 4.77579 11.5417 4.77565 11.5416 4.77553C11.5416 4.77552 11.5415 4.77542 11.5415 4.77539C11.5415 4.77535 11.5415 4.7754 11.5416 4.77554C11.5419 4.77581 11.5424 4.77645 11.5433 4.77744C11.5449 4.77942 11.5478 4.78282 11.5519 4.78762C11.56 4.79721 11.5728 4.81239 11.59 4.83295C11.6243 4.87408 11.676 4.93671 11.7426 5.01921C11.8758 5.18429 12.0685 5.42856 12.3007 5.73914C12.766 6.3613 13.3862 7.24428 14.0051 8.28555C15.2648 10.4047 16.4278 13.0296 16.4278 15.4011H18.4813ZM16.4278 15.4011C16.4278 17.6693 14.5891 19.508 12.3209 19.508V21.5615C15.7232 21.5615 18.4813 18.8034 18.4813 15.4011H16.4278ZM12.3209 19.508C10.0526 19.508 8.2139 17.6693 8.2139 15.4011H6.16043C6.16043 18.8034 8.91855 21.5615 12.3209 21.5615V19.508Z" fill="#FEFEFE"/>
</svg>
