<svg width="26" height="26" viewBox="0 0 26 26" fill="none" xmlns="http://www.w3.org/2000/svg">
<path d="M17.5391 2.16675H8.46079C4.51746 2.16675 2.16663 4.51758 2.16663 8.46092V17.5284C2.16663 21.4826 4.51746 23.8334 8.46079 23.8334H17.5283C21.4716 23.8334 23.8225 21.4826 23.8225 17.5392V8.46092C23.8333 4.51758 21.4825 2.16675 17.5391 2.16675ZM17.3983 15.1667C17.2358 15.3292 17.03 15.4051 16.8241 15.4051C16.6183 15.4051 16.4125 15.3184 16.25 15.1667L13 11.9167L9.74996 15.1667C9.43579 15.4809 8.91579 15.4809 8.60163 15.1667C8.28746 14.8526 8.28746 14.3326 8.60163 14.0184L12.4258 10.1942C12.74 9.88008 13.26 9.88008 13.5741 10.1942L17.3983 14.0184C17.7125 14.3326 17.7125 14.8417 17.3983 15.1667Z" fill="#142A68"/>
</svg>
