<svg width="16" height="20" viewBox="0 0 16 20" fill="none" xmlns="http://www.w3.org/2000/svg">
<path d="M16 9.93896C16 9.55713 15.854 9.23145 15.5508 8.93945L6.79102 0.370605C6.55518 0.123535 6.24072 0 5.88135 0C5.15137 0 4.57861 0.561523 4.57861 1.30273C4.57861 1.66211 4.72461 1.98779 4.97168 2.23486L12.8667 9.93896L4.97168 17.6431C4.72461 17.9014 4.57861 18.2271 4.57861 18.5864C4.57861 19.3164 5.15137 19.8779 5.88135 19.8779C6.24072 19.8779 6.55518 19.7544 6.79102 19.5073L15.5508 10.9385C15.854 10.6465 15.9888 10.3208 16 9.93896Z" fill="#6699FF"/>
</svg>
