<svg width="35" height="35" viewBox="0 0 35 35" fill="none" xmlns="http://www.w3.org/2000/svg">
<path d="M31.6166 0H26.7166C25.2666 0 24.2 0.599998 23.7166 1.66666C23.45 2.14999 23.3333 2.71666 23.3333 3.38332V8.2833C23.3333 10.4 24.6 11.6666 26.7166 11.6666H31.6166C32.2833 11.6666 32.8499 11.55 33.3333 11.2833C34.3999 10.8 34.9999 9.7333 34.9999 8.2833V3.38332C34.9999 1.26666 33.7333 0 31.6166 0ZM33.1833 6.54998C33.0166 6.71664 32.7666 6.83331 32.4999 6.84998H30.1499V7.69997L30.1666 9.16663C30.1499 9.44997 30.0499 9.6833 29.8499 9.8833C29.6833 10.05 29.4333 10.1666 29.1666 10.1666C28.6166 10.1666 28.1666 9.71663 28.1666 9.16663V6.83331L25.8333 6.84998C25.2833 6.84998 24.8333 6.38331 24.8333 5.83331C24.8333 5.28331 25.2833 4.83332 25.8333 4.83332L27.2999 4.84998H28.1666V2.51666C28.1666 1.96666 28.6166 1.49999 29.1666 1.49999C29.7166 1.49999 30.1666 1.96666 30.1666 2.51666L30.1499 3.69999V4.83332H32.4999C33.0499 4.83332 33.4999 5.28331 33.4999 5.83331C33.4833 6.11664 33.3666 6.34998 33.1833 6.54998Z" fill="#142A68"/>
<path d="M11.6666 15.6332C13.8573 15.6332 15.6332 13.8573 15.6332 11.6666C15.6332 9.47586 13.8573 7.69992 11.6666 7.69992C9.47586 7.69992 7.69992 9.47586 7.69992 11.6666C7.69992 13.8573 9.47586 15.6332 11.6666 15.6332Z" fill="#142A68"/>
<path d="M31.6166 11.6665H30.8332V19.3498L30.6166 19.1664C29.3166 18.0498 27.2166 18.0498 25.9166 19.1664L18.9833 25.1164C17.6833 26.2331 15.5833 26.2331 14.2833 25.1164L13.7166 24.6498C12.5333 23.6164 10.65 23.5164 9.31664 24.4164L3.08332 28.5997C2.71666 27.6664 2.49999 26.5831 2.49999 25.3164V11.3498C2.49999 6.64981 4.98332 4.16649 9.6833 4.16649H23.3333V3.38316C23.3333 2.71649 23.4499 2.14983 23.7166 1.6665H9.6833C3.61665 1.6665 0 5.28315 0 11.3498V25.3164C0 27.1331 0.316665 28.7164 0.93333 30.0497C2.36666 33.2164 5.43331 34.9997 9.6833 34.9997H23.6499C29.7166 34.9997 33.3332 31.3831 33.3332 25.3164V11.2831C32.8499 11.5498 32.2832 11.6665 31.6166 11.6665Z" fill="#142A68"/>
</svg>
