<svg width="22" height="21" viewBox="0 0 22 21" fill="none" xmlns="http://www.w3.org/2000/svg">
<path d="M19.2225 0.847571H16.5275C15.73 0.847571 15.1434 1.15272 14.8775 1.69521C14.7309 1.94102 14.6667 2.22921 14.6667 2.56827V5.06031C14.6667 6.13681 15.3634 6.78101 16.5275 6.78101H19.2225C19.5892 6.78101 19.9009 6.72168 20.1667 6.58606C20.7534 6.34024 21.0834 5.79776 21.0834 5.06031V2.56827C21.0834 1.49177 20.3867 0.847571 19.2225 0.847571ZM20.0842 4.17877C19.9925 4.26354 19.855 4.32287 19.7084 4.33135H18.4159V4.76364L18.425 5.50956C18.4159 5.65366 18.3609 5.77233 18.2509 5.87404C18.1592 5.95881 18.0217 6.01814 17.875 6.01814C17.5725 6.01814 17.325 5.78928 17.325 5.50956V4.32287L16.0417 4.33135C15.7392 4.33135 15.4917 4.09401 15.4917 3.81429C15.4917 3.53457 15.7392 3.30571 16.0417 3.30571L16.8484 3.31419H17.325V2.1275C17.325 1.84778 17.5725 1.61044 17.875 1.61044C18.1775 1.61044 18.425 1.84778 18.425 2.1275L18.4159 2.72932V3.30571H19.7084C20.0109 3.30571 20.2584 3.53457 20.2584 3.81429C20.2492 3.95839 20.185 4.07706 20.0842 4.17877Z" fill="#142A68"/>
<path d="M8.24999 8.79843C9.45489 8.79843 10.4317 7.89522 10.4317 6.78106C10.4317 5.66689 9.45489 4.76369 8.24999 4.76369C7.04509 4.76369 6.06832 5.66689 6.06832 6.78106C6.06832 7.89522 7.04509 8.79843 8.24999 8.79843Z" fill="#142A68"/>
<path d="M19.2225 6.78119H18.7916V10.6888L18.6725 10.5955C17.9575 10.0276 16.8025 10.0276 16.0875 10.5955L12.2741 13.6216C11.5591 14.1895 10.4041 14.1895 9.68913 13.6216L9.37747 13.3843C8.72663 12.8587 7.6908 12.8079 6.95746 13.2656L3.52913 15.3932C3.32746 14.9185 3.20829 14.3675 3.20829 13.7233V6.62014C3.20829 4.22981 4.57413 2.96684 7.15913 2.96684H14.6666V2.56845C14.6666 2.2294 14.7308 1.9412 14.8775 1.69539H7.15913C3.82246 1.69539 1.83329 3.53475 1.83329 6.62014V13.7233C1.83329 14.6472 2.00746 15.4525 2.34663 16.1306C3.13496 17.7411 4.82163 18.6481 7.15913 18.6481H14.8408C18.1775 18.6481 20.1666 16.8087 20.1666 13.7233V6.58624C19.9008 6.72186 19.5891 6.78119 19.2225 6.78119Z" fill="#142A68"/>
</svg>
