<svg width="18" height="19" viewBox="0 0 18 19" fill="none" xmlns="http://www.w3.org/2000/svg">
<path d="M8.13753 0.469215C8.54236 -0.156353 9.45764 -0.156352 9.86247 0.469216L10.7687 1.86966C11.0329 2.27792 11.5472 2.44501 12.0009 2.27001L13.5573 1.66972C14.2525 1.40158 14.9929 1.93957 14.9528 2.68362L14.8628 4.3493C14.8366 4.83487 15.1544 5.27232 15.6243 5.39743L17.2363 5.82659C17.9563 6.01829 18.2392 6.88878 17.7693 7.4671L16.7175 8.76179C16.4108 9.13921 16.4108 9.67993 16.7175 10.0574L17.7693 11.352C18.2392 11.9304 17.9563 12.8008 17.2363 12.9925L15.6243 13.4217C15.1544 13.5468 14.8366 13.9843 14.8628 14.4698L14.9528 16.1355C14.9929 16.8796 14.2525 17.4176 13.5573 17.1494L12.0009 16.5491C11.5472 16.3741 11.0329 16.5412 10.7687 16.9495L9.86247 18.3499C9.45764 18.9755 8.54236 18.9755 8.13753 18.3499L7.23125 16.9495C6.96706 16.5412 6.4528 16.3741 5.9991 16.5491L4.44274 17.1494C3.74753 17.4176 3.00705 16.8796 3.04724 16.1355L3.13721 14.4698C3.16343 13.9843 2.84561 13.5468 2.37569 13.4217L0.763735 12.9925C0.0436862 12.8008 -0.239151 11.9304 0.2307 11.352L1.28255 10.0574C1.58918 9.67993 1.58918 9.13921 1.28255 8.76179L0.2307 7.4671C-0.239152 6.88878 0.0436864 6.01829 0.763735 5.82659L2.37569 5.39743C2.84561 5.27232 3.16343 4.83487 3.13721 4.3493L3.04724 2.68362C3.00705 1.93957 3.74753 1.40158 4.44274 1.66972L5.9991 2.27001C6.4528 2.44501 6.96706 2.27792 7.23125 1.86966L8.13753 0.469215Z" fill="#6699FF"/>
</svg>
