<svg width="38" height="32" viewBox="0 0 38 32" fill="none" xmlns="http://www.w3.org/2000/svg">
<path d="M34.4545 2.1726C35.3963 2.1726 35.8881 2.88841 35.8196 3.48043C35.4335 6.81848 34.4937 10.0719 33.0341 13.0974C31.0708 17.1673 28.2206 20.7135 24.7092 23.4632C21.1979 26.2127 17.1194 28.0925 12.7913 28.9605C9.61205 29.5981 6.35927 29.6775 3.16997 29.2039L2.85084 31.3529L3.16996 29.2039C2.56303 29.1138 1.97482 28.4291 2.22871 27.4739C2.44629 26.6553 3.415 25.9231 4.70002 26.0563C7.19939 26.3155 9.73004 26.1979 12.21 25.7005C16.0811 24.9242 19.7215 23.2442 22.849 20.7952C25.9763 18.3463 28.506 15.1949 30.2456 11.589C31.396 9.20439 32.1807 6.66264 32.5804 4.05286C32.7618 2.86816 33.6573 2.1726 34.4545 2.1726Z" stroke="#FEC635" stroke-width="4.31003" stroke-linecap="round"/>
</svg>
