<svg width="26" height="26" viewBox="0 0 26 26" fill="none" xmlns="http://www.w3.org/2000/svg">
<path d="M18.4166 2.1665H7.58329C4.59329 2.1665 2.16663 4.58234 2.16663 7.5615V14.0398V15.1232C2.16663 18.1023 4.59329 20.5182 7.58329 20.5182H9.20829C9.50079 20.5182 9.89079 20.7132 10.075 20.9515L11.7 23.1073C12.415 24.0607 13.585 24.0607 14.3 23.1073L15.925 20.9515C16.1308 20.6807 16.4558 20.5182 16.7916 20.5182H18.4166C21.4066 20.5182 23.8333 18.1023 23.8333 15.1232V7.5615C23.8333 4.58234 21.4066 2.1665 18.4166 2.1665ZM8.66663 12.9998C8.05996 12.9998 7.58329 12.5123 7.58329 11.9165C7.58329 11.3207 8.07079 10.8332 8.66663 10.8332C9.26246 10.8332 9.74996 11.3207 9.74996 11.9165C9.74996 12.5123 9.27329 12.9998 8.66663 12.9998ZM13 12.9998C12.3933 12.9998 11.9166 12.5123 11.9166 11.9165C11.9166 11.3207 12.4041 10.8332 13 10.8332C13.5958 10.8332 14.0833 11.3207 14.0833 11.9165C14.0833 12.5123 13.6066 12.9998 13 12.9998ZM17.3333 12.9998C16.7266 12.9998 16.25 12.5123 16.25 11.9165C16.25 11.3207 16.7375 10.8332 17.3333 10.8332C17.9291 10.8332 18.4166 11.3207 18.4166 11.9165C18.4166 12.5123 17.94 12.9998 17.3333 12.9998Z" fill="#142A68"/>
</svg>
