<svg width="18" height="19" viewBox="0 0 18 19" fill="none" xmlns="http://www.w3.org/2000/svg">
<path d="M8.13753 0.468968C8.54236 -0.156604 9.45764 -0.156604 9.86247 0.468968L10.7688 1.86942C11.033 2.27768 11.5472 2.44477 12.0009 2.26978L13.5573 1.66949C14.2525 1.40134 14.993 1.93933 14.9528 2.68339L14.8628 4.34908C14.8366 4.83466 15.1544 5.27211 15.6244 5.39722L17.2363 5.82638C17.9564 6.01809 18.2392 6.88858 17.7694 7.46691L16.7175 8.7616C16.4109 9.13902 16.4109 9.67974 16.7175 10.0572L17.7694 11.3519C18.2392 11.9302 17.9564 12.8007 17.2363 12.9924L15.6244 13.4215C15.1544 13.5467 14.8366 13.9841 14.8628 14.4697L14.9528 16.1354C14.993 16.8794 14.2525 17.4174 13.5573 17.1493L12.0009 16.549C11.5472 16.374 11.033 16.5411 10.7688 16.9493L9.86247 18.3498C9.45764 18.9754 8.54236 18.9754 8.13752 18.3498L7.23124 16.9493C6.96704 16.5411 6.45279 16.374 5.99908 16.549L4.44271 17.1493C3.7475 17.4174 3.00701 16.8794 3.0472 16.1354L3.13717 14.4697C3.16339 13.9841 2.84557 13.5467 2.37564 13.4215L0.763678 12.9924C0.0436238 12.8007 -0.239216 11.9302 0.230639 11.3519L1.28249 10.0572C1.58913 9.67974 1.58913 9.13902 1.28249 8.7616L0.230639 7.46691C-0.239216 6.88858 0.043624 6.01809 0.763678 5.82638L2.37564 5.39722C2.84557 5.27211 3.16339 4.83466 3.13717 4.34908L3.0472 2.68339C3.00701 1.93933 3.7475 1.40134 4.44271 1.66949L5.99908 2.26978C6.45279 2.44477 6.96704 2.27768 7.23124 1.86942L8.13753 0.468968Z" fill="#6699FF"/>
</svg>
